<svg width="16" height="16" viewBox="0 0 16 16" fill="none" xmlns="http://www.w3.org/2000/svg">
  <path fill-rule="evenodd" clip-rule="evenodd" d="M8 15C11.866 15 15 11.866 15 8C15 4.13401 11.866 1 8 1C4.13401 1 1 4.13401 1 8C1 11.866 4.13401 15 8 15ZM8 16C12.4183 16 16 12.4183 16 8C16 3.58172 12.4183 0 8 0C3.58172 0 0 3.58172 0 8C0 12.4183 3.58172 16 8 16Z" fill="#107C93"/>
  <path d="M7 6.5C7 6.22386 7.22386 6 7.5 6H8.5C8.77614 6 9 6.22386 9 6.5V12.5C9 12.7761 8.77614 13 8.5 13H7.5C7.22386 13 7 12.7761 7 12.5V6.5Z" fill="#107C93"/>
  <path d="M7 3.5C7 3.22386 7.22386 3 7.5 3H8.5C8.77614 3 9 3.22386 9 3.5V4.5C9 4.77614 8.77614 5 8.5 5H7.5C7.22386 5 7 4.77614 7 4.5V3.5Z" fill="#107C93"/>
</svg>
